 <svg version="1.0" xmlns="http://www.w3.org/2000/svg" width="700.000000pt" height="610.000000pt" viewBox="0 0 700.000000 610.000000" preserveAspectRatio="xMidYMid meet">
<metadata>
Created by potrace 1.12, written by Peter Selinger 2001-2015
</metadata>
<g transform="translate(0.000000,610.000000) scale(0.100000,-0.100000)" fill="#000000" stroke="none">
<path d="M4992 6049 c-429 -64 -993 -302 -1592 -672 -285 -176 -514 -342 -790
-571 -189 -157 -261 -226 -397 -379 -144 -163 -212 -258 -272 -379 -104 -211
-104 -285 5 -438 67 -96 77 -125 44 -135 -10 -3 -180 -10 -377 -14 -206 -5
-369 -13 -385 -19 -14 -6 -38 -26 -52 -45 -24 -31 -286 -580 -286 -599 0 -4
19 -17 42 -29 31 -16 72 -25 141 -30 53 -4 107 -11 118 -14 46 -15 22 -77
-256 -675 -274 -589 -297 -634 -341 -650 -13 -5 -106 -14 -207 -20 -254 -15
-297 -30 -342 -119 -17 -33 -17 -35 1 -48 33 -24 93 -34 255 -43 98 -5 166
-13 174 -20 24 -20 18 -53 -36 -186 -28 -69 -51 -137 -52 -152 -2 -24 2 -27
48 -33 28 -4 148 -12 268 -18 291 -13 293 -14 236 -156 -16 -42 -33 -98 -36
-125 -7 -62 12 -160 42 -221 74 -144 306 -247 535 -236 164 8 353 59 525 142
210 102 358 231 487 425 42 63 85 123 95 132 30 27 99 37 260 38 234 0 239 -5
192 -178 -38 -141 -36 -200 9 -296 58 -124 148 -189 332 -241 113 -32 207 -31
387 3 217 42 411 129 580 261 109 85 167 151 253 291 91 148 79 142 282 152
379 18 427 23 454 49 13 12 52 77 85 143 74 145 101 184 144 202 18 7 106 18
197 24 259 17 299 28 338 93 52 84 19 101 -221 118 -96 6 -182 15 -191 20 -10
6 -18 18 -18 29 0 39 74 208 358 820 169 366 189 403 230 443 l39 38 126 6
c115 5 132 9 188 37 l61 31 100 215 c121 261 168 372 168 399 0 11 -8 24 -17
29 -10 5 -137 12 -283 15 -146 2 -273 8 -282 12 -10 4 -18 14 -18 23 0 9 65
80 143 157 213 208 375 419 446 580 34 75 36 87 36 186 l0 107 -38 55 c-39 56
-217 231 -837 822 -527 502 -582 551 -705 612 -113 57 -188 63 -393 32z m277
-164 c59 -34 76 -68 76 -145 0 -63 -4 -76 -62 -191 -78 -157 -156 -254 -377
-474 -226 -225 -399 -369 -701 -582 -390 -275 -934 -562 -1321 -696 -389 -135
-702 -160 -793 -64 -26 28 -41 103 -31 157 13 70 115 259 192 355 155 192 415
442 654 628 587 457 1394 887 1880 1001 38 9 87 21 109 26 22 5 108 8 190 7
129 -2 156 -6 184 -22z m349 -315 c68 -41 180 -170 212 -243 28 -62 21 -95
-46 -234 -76 -158 -170 -277 -390 -493 -274 -270 -585 -511 -944 -734 -187
-117 -444 -260 -602 -336 l-106 -52 -164 -10 c-175 -11 -1131 -5 -1161 7 -49
20 12 51 205 104 455 126 810 288 1388 635 597 358 1233 918 1422 1254 66 117
116 144 186 102z m489 -470 c57 -34 191 -170 213 -214 25 -52 25 -97 1 -167
-67 -195 -235 -412 -522 -676 -224 -205 -411 -355 -602 -482 -147 -99 -105
-93 -622 -89 -497 3 -514 5 -434 53 693 408 996 628 1377 1000 183 178 274
282 382 436 119 170 137 182 207 139z m499 -469 c58 -42 143 -136 159 -176 42
-100 -14 -250 -174 -462 -75 -98 -277 -311 -391 -411 -136 -119 -122 -115
-425 -119 -297 -5 -408 3 -413 29 -2 11 46 54 155 136 389 296 667 566 858
837 87 124 151 195 176 195 9 0 34 -13 55 -29z m-33 -1389 c20 -17 10 -56 -43
-170 -34 -71 -44 -85 -77 -100 -35 -15 -213 -16 -2568 -17 -1392 0 -2552 4
-2578 8 -27 5 -51 15 -54 23 -6 16 93 228 115 247 26 21 312 23 2783 23 1954
-1 2409 -3 2422 -14z m-784 -519 c103 -4 154 -10 157 -18 6 -15 -47 -138 -263
-614 -361 -794 -485 -1051 -527 -1090 -29 -27 -118 -40 -271 -40 -171 0 -173
1 -294 126 -91 95 -114 113 -165 132 -102 38 -156 45 -311 45 -122 0 -166 -5
-232 -22 -175 -47 -280 -93 -471 -206 l-108 -64 -355 -7 -355 -8 -46 64 c-119
167 -241 230 -472 245 -121 8 -252 -7 -373 -42 -107 -30 -169 -59 -384 -175
l-166 -89 -134 1 c-74 1 -163 4 -199 8 -103 10 -107 -9 101 451 328 730 581
1263 611 1287 7 6 22 13 33 16 31 7 4051 8 4224 0z m-3766 -1673 c93 -14 159
-44 206 -95 71 -78 81 -196 25 -315 -57 -121 -230 -270 -387 -333 -171 -69
-396 -85 -505 -38 -67 30 -158 126 -168 177 -12 65 2 132 46 222 76 154 206
261 402 333 153 57 245 68 381 49z m2095 0 c90 -12 155 -40 205 -88 49 -47 67
-90 67 -162 0 -110 -64 -238 -164 -326 -57 -51 -203 -140 -302 -185 -90 -41
-194 -54 -330 -40 -164 17 -224 51 -279 161 -29 57 -22 106 35 236 64 143 60
139 135 202 110 94 262 168 405 197 80 16 133 17 228 5z"></path>
</g>
</svg>