 <svg version="1.0" xmlns="http://www.w3.org/2000/svg" width="700.000000pt" height="700.000000pt" viewBox="0 0 700.000000 700.000000" preserveAspectRatio="xMidYMid meet">
<metadata>
Created by potrace 1.12, written by Peter Selinger 2001-2015
</metadata>
<g transform="translate(0.000000,700.000000) scale(0.100000,-0.100000)" fill="#000000" stroke="none">
<path d="M3315 5915 c-430 -95 -984 -709 -1090 -1208 -22 -101 -19 -214 6
-284 17 -46 36 -73 97 -131 59 -58 73 -76 61 -83 -8 -5 -100 -9 -205 -9 -172
0 -193 -2 -207 -18 -15 -16 -17 -47 -17 -220 l0 -201 29 -20 c21 -15 44 -21
86 -21 104 0 95 40 95 -445 0 -372 -2 -425 -16 -439 -11 -12 -37 -16 -102 -17
-48 0 -103 -6 -122 -13 -32 -11 -35 -17 -38 -55 -3 -39 -1 -42 32 -56 22 -10
69 -15 125 -15 120 0 121 -1 121 -140 0 -76 4 -111 12 -117 7 -4 80 -10 161
-13 175 -6 177 -7 177 -107 0 -57 6 -80 39 -153 32 -69 71 -115 136 -159 209
-140 491 -67 608 159 20 38 47 154 47 200 0 50 20 60 128 60 140 0 145 -4 155
-117 6 -81 12 -100 44 -155 52 -90 96 -132 182 -175 66 -33 87 -38 159 -41
171 -8 315 74 393 223 25 48 32 77 38 147 3 49 12 93 19 100 9 9 57 14 160 16
122 3 149 6 160 19 8 11 12 53 12 118 0 132 0 132 141 137 123 4 139 12 139
70 0 35 -3 40 -35 54 -21 9 -68 14 -124 14 -68 0 -93 4 -105 16 -14 14 -16 67
-16 439 0 485 -8 449 94 444 41 -2 60 2 84 20 l32 22 0 200 c0 119 -4 208 -10
220 -10 17 -23 19 -161 19 -84 0 -159 5 -170 10 -18 10 -18 13 12 71 78 156
126 346 115 461 -8 85 -45 170 -94 216 -32 31 -205 176 -889 747 -273 227
-324 249 -498 210z m201 -101 c138 -66 134 -295 -10 -599 -154 -326 -467 -660
-751 -802 -201 -101 -366 -97 -421 9 -60 117 -28 311 92 555 183 371 590 760
877 838 72 19 171 19 213 -1z m285 -226 c83 -60 166 -150 178 -193 56 -206
-95 -577 -364 -889 -92 -109 -263 -268 -309 -290 -29 -14 -82 -16 -368 -16
-183 0 -339 4 -347 9 -27 17 -2 37 80 65 85 28 199 88 299 157 76 54 272 238
354 334 126 148 264 375 326 538 29 75 60 200 60 242 0 42 15 75 34 75 7 0 33
-14 57 -32z m426 -354 c117 -96 137 -134 136 -249 0 -44 -8 -111 -17 -149 -37
-156 -155 -386 -282 -553 -43 -56 -64 -74 -88 -78 -47 -9 -493 -1 -503 9 -4 4
8 20 27 35 19 14 41 33 48 42 8 9 43 47 78 83 231 241 409 568 454 831 16 98
19 105 38 105 10 0 59 -34 109 -76z m323 -269 c73 -53 127 -118 141 -167 19
-73 6 -201 -35 -323 -47 -139 -110 -261 -139 -269 -29 -8 -341 -8 -361 0 -24
9 -20 22 23 78 133 175 245 421 271 593 13 89 25 123 41 123 6 0 33 -16 59
-35z m308 -907 c13 -13 17 -153 6 -182 -6 -14 -136 -16 -1379 -16 -1243 0
-1373 2 -1379 16 -12 31 -7 182 7 187 6 3 624 6 1373 6 1045 1 1363 -2 1372
-11z m-203 -347 c3 -6 6 -264 6 -576 1 -429 -2 -569 -11 -580 -15 -18 -209
-22 -240 -5 -10 5 -44 37 -76 70 -69 73 -127 104 -223 120 -147 25 -279 -23
-381 -138 l-51 -57 -188 -3 -189 -3 -43 52 c-102 121 -247 175 -401 149 -96
-17 -146 -44 -233 -129 l-73 -71 -109 0 c-71 0 -113 4 -121 12 -9 9 -12 152
-12 583 0 315 3 575 7 578 10 11 2331 8 2338 -2z m-1645 -1115 c98 -30 149
-80 184 -182 20 -59 20 -95 1 -157 -35 -116 -124 -186 -248 -195 -84 -6 -142
14 -202 72 -66 63 -85 106 -85 198 0 108 33 173 115 227 77 50 153 62 235 37z
m1114 -1 c96 -28 166 -107 185 -209 21 -112 -19 -202 -125 -284 -46 -36 -48
-37 -138 -37 -100 0 -147 18 -198 73 -60 65 -73 101 -73 197 0 82 3 94 29 139
66 110 193 158 320 121z"></path>
</g>
</svg>