 <svg version="1.0" xmlns="http://www.w3.org/2000/svg" width="700.000000pt" height="881.000000pt" viewBox="0 0 700.000000 881.000000" preserveAspectRatio="xMidYMid meet">
<metadata>
Created by potrace 1.12, written by Peter Selinger 2001-2015
</metadata>
<g transform="translate(0.000000,881.000000) scale(0.100000,-0.100000)" fill="#000000" stroke="none">
<path d="M3326 8802 c-3 -5 -36 -13 -73 -16 -94 -10 -315 -67 -337 -87 -6 -5
-16 -9 -24 -9 -25 0 -280 -129 -373 -188 -133 -85 -315 -219 -426 -313 -135
-115 -348 -324 -451 -444 -48 -55 -89 -102 -92 -105 -7 -6 -139 -173 -186
-235 -96 -125 -274 -410 -354 -563 -24 -46 -47 -85 -52 -88 -4 -3 -8 -12 -8
-20 0 -12 -46 -120 -71 -166 -10 -20 -24 -57 -63 -173 -15 -44 -31 -89 -35
-100 -10 -25 -27 -95 -53 -215 -28 -128 -30 -402 -4 -500 40 -153 75 -209 236
-375 140 -144 149 -158 118 -179 -19 -12 -95 -16 -424 -22 -454 -8 -456 -8
-482 -79 -13 -33 -16 -112 -16 -465 l-1 -425 66 -38 c64 -37 70 -38 190 -44
81 -4 132 -11 146 -20 16 -11 26 -35 38 -86 14 -63 16 -174 13 -922 -3 -980 3
-915 -90 -934 -29 -6 -129 -15 -223 -20 -250 -14 -295 -38 -295 -160 l0 -69
53 -25 c65 -32 91 -36 305 -46 254 -13 247 -4 255 -310 5 -162 10 -219 21
-236 13 -20 28 -23 148 -33 73 -7 203 -14 288 -17 283 -10 310 -29 310 -212 0
-140 27 -238 109 -393 86 -164 221 -292 396 -375 80 -38 154 -64 185 -65 14 0
38 -7 54 -15 32 -17 281 -22 290 -6 4 5 25 12 49 16 96 16 229 72 332 141 156
104 297 288 342 448 30 108 54 224 60 296 12 153 29 163 293 164 295 1 301 -3
331 -252 19 -160 35 -224 73 -292 103 -186 207 -304 340 -384 96 -57 224 -111
288 -120 26 -4 50 -11 53 -17 8 -12 238 -12 251 1 6 6 35 13 65 17 137 15 314
100 440 212 87 76 194 234 235 344 20 53 53 247 54 308 0 26 7 70 17 98 14 44
21 52 52 62 20 6 150 15 290 20 139 6 281 16 314 22 l61 13 13 49 c7 28 13 95
13 151 0 55 3 142 6 192 6 78 11 96 33 122 30 36 55 41 330 60 170 12 194 19
233 65 25 29 25 142 1 162 -62 49 -92 55 -304 68 -131 8 -217 18 -235 26 -57
28 -57 15 -58 929 0 459 3 861 7 892 5 31 18 72 31 90 l22 33 135 5 136 6 59
40 59 41 3 384 c2 250 -1 413 -9 467 -15 110 -18 112 -216 113 -294 1 -488 13
-517 32 -33 22 -30 35 34 172 26 55 55 118 64 140 10 22 21 49 26 60 17 39 68
201 88 275 95 362 90 569 -19 808 -59 128 -105 173 -614 597 -59 50 -126 106
-149 125 -112 94 -151 126 -276 231 -75 63 -158 132 -185 154 -26 22 -67 56
-90 75 -86 73 -146 123 -335 280 -232 193 -290 242 -304 255 -18 17 -327 268
-391 319 -33 25 -105 77 -160 115 -87 59 -125 80 -220 123 -67 30 -228 57
-239 40z m234 -257 c90 -47 153 -121 196 -230 27 -71 28 -374 1 -485 -29 -121
-68 -250 -96 -322 -5 -12 -17 -43 -26 -68 -77 -199 -218 -465 -358 -675 -72
-107 -250 -343 -302 -400 -20 -22 -78 -87 -130 -145 -230 -259 -594 -555 -860
-702 -313 -172 -610 -242 -796 -189 -137 39 -196 99 -251 252 -20 57 -22 82
-21 224 0 89 6 180 12 205 7 25 16 66 21 93 10 52 12 61 66 222 20 61 40 114
45 120 5 5 9 14 9 21 0 20 125 284 190 399 110 198 312 484 445 631 5 6 35 41
65 77 68 81 353 364 435 432 33 28 67 56 75 64 8 8 76 60 150 116 279 208 545
341 760 379 14 2 95 3 180 2 126 -3 162 -7 190 -21z m565 -456 c105 -56 336
-271 410 -382 52 -78 65 -138 65 -302 0 -178 -39 -378 -109 -557 -5 -12 -17
-43 -26 -68 -36 -94 -165 -361 -212 -442 -167 -282 -357 -543 -529 -727 -38
-40 -78 -85 -89 -99 -37 -46 -374 -359 -448 -416 -119 -91 -102 -89 -878 -89
-361 1 -679 4 -707 8 -64 9 -91 27 -76 52 12 20 114 77 157 88 16 4 40 13 55
21 15 8 32 14 39 14 6 0 24 6 40 14 15 8 89 44 163 81 74 36 155 78 180 93
121 73 150 92 231 152 199 148 639 569 787 754 98 122 229 302 292 401 141
222 266 450 344 630 89 205 176 518 176 635 0 86 34 160 73 160 12 0 40 -10
62 -21z m835 -695 c82 -54 237 -181 310 -254 114 -114 150 -211 150 -404 0
-282 -63 -507 -246 -881 -117 -242 -232 -431 -381 -631 -98 -132 -156 -188
-210 -204 -30 -9 -162 -11 -509 -6 -478 6 -584 12 -591 33 -3 7 20 34 49 60
132 119 387 393 523 563 84 105 246 339 291 419 10 19 34 57 52 85 32 49 195
370 219 431 16 41 53 135 65 165 5 13 18 51 29 85 11 33 24 74 30 90 13 37 37
134 48 195 5 25 16 88 26 140 29 162 49 177 145 114z m793 -660 c54 -28 148
-104 233 -189 142 -141 182 -250 171 -456 -6 -114 -22 -235 -36 -283 -5 -17
-14 -51 -21 -76 -6 -25 -15 -63 -21 -85 -6 -22 -14 -44 -20 -50 -5 -5 -9 -16
-9 -25 0 -8 -6 -27 -14 -42 -8 -15 -17 -40 -21 -57 -4 -17 -11 -33 -16 -36 -5
-4 -9 -13 -9 -20 0 -26 -127 -281 -165 -333 -21 -28 -50 -55 -64 -61 -37 -14
-359 -21 -587 -14 -165 5 -199 9 -217 24 -21 16 -21 18 -6 50 9 19 53 86 99
149 212 298 375 613 479 930 18 52 37 111 43 130 7 19 15 55 19 80 7 46 20
111 45 235 20 96 43 145 66 145 10 0 33 -7 51 -16z m142 -2024 c319 -6 588
-13 597 -16 28 -9 41 -79 42 -232 1 -138 0 -144 -22 -162 -12 -10 -48 -22 -80
-27 -31 -4 -1364 -8 -2962 -8 -3091 0 -2975 -1 -3001 47 -12 23 -8 329 5 360
4 9 15 20 24 24 42 19 4452 30 5397 14z m-316 -770 c376 -7 467 -11 478 -23
12 -11 15 -165 19 -958 6 -1062 -2 -1511 -28 -1551 -18 -27 -29 -29 -234 -44
-93 -8 -269 10 -299 30 -12 8 -79 69 -149 137 -186 179 -257 220 -453 263 -99
22 -327 22 -402 0 -202 -59 -320 -133 -479 -299 l-109 -116 -409 -10 -408 -11
-39 44 c-227 252 -337 327 -567 388 -99 26 -322 28 -425 4 -149 -35 -273 -98
-370 -190 -22 -20 -91 -84 -154 -142 l-114 -105 -196 7 c-108 4 -216 10 -241
14 -76 12 -72 -39 -78 1017 -4 926 3 1500 19 1526 6 11 48 15 171 20 275 9
3973 9 4467 -1z m-3104 -2460 c179 -65 268 -141 343 -296 51 -103 67 -170 67
-274 0 -78 -5 -109 -28 -175 -81 -230 -225 -357 -459 -406 -111 -23 -171 -24
-257 -3 -106 25 -176 65 -267 151 -141 135 -184 234 -184 428 0 192 52 332
160 428 62 57 152 112 228 141 91 34 101 35 227 31 81 -2 126 -9 170 -25z
m2415 5 c258 -74 420 -297 420 -577 0 -114 -20 -190 -75 -283 -36 -63 -133
-164 -218 -228 -61 -46 -82 -57 -138 -66 -83 -14 -156 -14 -277 0 -160 19
-257 78 -364 222 -87 116 -93 139 -93 368 l0 196 35 69 c44 88 161 207 245
250 60 32 144 60 200 68 55 8 209 -3 265 -19z"></path>
</g>
</svg>